<svg width="125" height="125" viewBox="0 0 125 125" fill="none" xmlns="http://www.w3.org/2000/svg">
<path d="M36.859 58.8676C35.1496 57.1582 32.3718 57.1582 30.6624 58.8676C28.953 60.577 28.953 63.3548 30.6624 65.0642L50.8547 85.2565C51.7094 86.1112 52.7778 86.5385 53.953 86.5385C54.0599 86.5385 54.0599 86.5385 54.1667 86.5385C55.3419 86.4317 56.5171 85.8975 57.3718 84.936L107.906 24.359C109.402 22.5428 109.188 19.765 107.372 18.1625C105.556 16.6667 102.778 16.8804 101.175 18.6966L53.6325 75.6411L36.859 58.8676Z" fill="#17AB13"/>
<path d="M95.1922 9.93591C70.6196 -5.44871 39.1025 -1.81623 18.5897 18.6966C-5.55561 42.8419 -5.55561 82.265 18.5897 106.41C30.6623 118.483 46.5811 124.573 62.3931 124.573C78.2051 124.573 94.1239 118.483 106.197 106.41C126.816 85.7906 130.342 54.1667 114.85 29.594C113.568 27.5641 110.897 26.9231 108.867 28.2051C106.838 29.4872 106.197 32.1581 107.479 34.188C120.833 55.3419 117.735 82.4786 99.9999 100.214C79.2734 120.94 45.4059 120.94 24.6794 100.214C3.95294 79.4872 3.95294 45.6197 24.6794 24.8932C42.4145 7.26497 69.4444 4.16668 90.5982 17.3077C92.6281 18.5898 95.2991 17.9487 96.5811 15.9188C97.8632 13.8889 97.2222 11.218 95.1922 9.93591Z" fill="#17AB13"/>
</svg>
