<svg width="150" height="150" viewBox="0 0 150 150" fill="none" xmlns="http://www.w3.org/2000/svg">
<rect width="150" height="150" fill="white"/>
<path d="M149.318 81.1604C147.936 65.9334 135.871 53.869 120.645 52.4873C120.645 51.5086 120.645 50.5491 120.645 49.6088C120.645 30.5316 105.181 15.0663 86.1038 15.0655C72.0954 15.0651 59.4737 23.5249 54.1512 36.4828C46.8862 30.302 35.9862 31.1806 29.8051 38.4452C26.4445 42.3949 25.0371 47.6457 25.9701 52.7464C8.76852 55.894 -2.62464 72.3901 0.522537 89.5918C3.25712 104.536 16.2193 115.432 31.4105 115.556H120.644C138.06 113.975 150.898 98.5758 149.318 81.1604ZM114.704 102.964H34.745C32.5381 102.964 30.7469 101.173 30.7469 98.9665C30.7469 96.7596 32.5381 94.9688 34.745 94.9688H114.704C116.91 94.9688 118.702 96.7596 118.702 98.9665C118.702 101.173 116.91 102.964 114.704 102.964ZM114.704 86.6526H34.745C32.5381 86.6526 30.7469 84.8618 30.7469 82.6549C30.7469 80.4481 32.5381 78.6572 34.745 78.6572H114.704C116.91 78.6572 118.702 80.4481 118.702 82.6549C118.702 84.8618 116.91 86.6526 114.704 86.6526ZM114.704 70.9171H34.7454C32.5385 70.9171 30.7469 69.1263 30.7469 66.9194C30.7469 64.7126 32.5385 62.9218 34.7454 62.9218H114.704C116.91 62.9218 118.702 64.7126 118.702 66.9194C118.702 69.1263 116.91 70.9171 114.704 70.9171Z" fill="#435562"/>
<g filter="url(#filter0_d)">
<path d="M47.6068 97.8429C45.717 99.7328 47.0555 102.964 49.7282 102.964H57.906C59.5629 102.964 60.906 104.307 60.906 105.964V132.204C60.906 133.86 62.2492 135.204 63.906 135.204H85.5401C87.197 135.204 88.5401 133.86 88.5401 132.204V105.964C88.5401 104.307 89.8833 102.964 91.5401 102.964H99.7199C102.393 102.964 103.731 99.7327 101.841 97.8428L76.8443 72.8465C75.6727 71.6749 73.7732 71.675 72.6016 72.8466L47.6068 97.8429Z" fill="#9FA6AB" stroke="#9FA6AB" stroke-width="10" stroke-miterlimit="10"/>
</g>
<defs>
<filter id="filter0_d" x="37.7119" y="66.9679" width="74.0238" height="81.2357" filterUnits="userSpaceOnUse" color-interpolation-filters="sRGB">
<feFlood flood-opacity="0" result="BackgroundImageFix"/>
<feColorMatrix in="SourceAlpha" type="matrix" values="0 0 0 0 0 0 0 0 0 0 0 0 0 0 0 0 0 0 127 0"/>
<feOffset dy="4"/>
<feGaussianBlur stdDeviation="2"/>
<feColorMatrix type="matrix" values="0 0 0 0 0 0 0 0 0 0 0 0 0 0 0 0 0 0 0.25 0"/>
<feBlend mode="normal" in2="BackgroundImageFix" result="effect1_dropShadow"/>
<feBlend mode="normal" in="SourceGraphic" in2="effect1_dropShadow" result="shape"/>
</filter>
</defs>
</svg>
