<svg width="121" height="121" viewBox="0 0 121 121" fill="none" xmlns="http://www.w3.org/2000/svg">
<path d="M60.8267 38.5872C64.8054 38.5872 68.0337 35.3589 68.0337 31.3801C68.0337 27.3965 64.8054 24.1777 60.8267 24.1777C56.8477 24.1777 53.6196 27.3967 53.6196 31.3801C53.6196 35.3589 56.8477 38.5872 60.8267 38.5872Z" fill="#4285F4"/>
<path d="M65.7207 48.1965V45.6721V43.3918H51.3066V48.1965H56.1113V89.0364H51.3066V93.8411H70.5254V89.0364H65.7207V48.1965Z" fill="#4285F4"/>
<path d="M60.5264 0.355957C27.3582 0.355957 0.467773 27.2463 0.467773 60.4146C0.467773 93.5876 27.3582 120.473 60.5264 120.473C93.6946 120.473 120.585 93.5876 120.585 60.4146C120.585 27.2463 93.6948 0.355957 60.5264 0.355957ZM60.5264 115.668C30.0583 115.668 5.27246 90.8801 5.27246 60.4146C5.27246 29.949 30.0586 5.16064 60.5264 5.16064C90.9944 5.16064 115.78 29.949 115.78 60.4146C115.78 90.8801 90.9944 115.668 60.5264 115.668Z" fill="#4285F4"/>
</svg>
