<svg width="125" height="125" viewBox="0 0 125 125" fill="none" xmlns="http://www.w3.org/2000/svg">
<path fill-rule="evenodd" clip-rule="evenodd" d="M62.5 0C79.7607 0 95.3857 7.00684 106.689 18.3105C117.993 29.6143 125 45.2393 125 62.5C125 79.7607 117.993 95.3857 106.689 106.689C95.3857 117.993 79.7607 125 62.5 125C45.2393 125 29.6143 117.993 18.3105 106.689C7.00684 95.3857 0 79.7607 0 62.5C0 45.2393 7.00684 29.6143 18.3105 18.3105C29.6143 7.00684 45.2393 0 62.5 0Z" fill="white"/>
<path fill-rule="evenodd" clip-rule="evenodd" d="M125 62.5C125 45.2393 117.993 29.6143 106.689 18.3105C95.3857 7.00684 79.7607 0 62.5 0C47.1191 0 33.0811 5.56641 22.1924 14.7949L22.168 14.7705C20.8252 15.8936 19.5312 17.0654 18.3105 18.3105C17.0898 19.5557 15.8936 20.8252 14.7705 22.168L14.7949 22.1924C5.56641 33.0811 0 47.1191 0 62.5C0 79.7607 7.00684 95.3857 18.3105 106.689C29.6143 117.993 45.2393 125 62.5 125C77.8809 125 91.9189 119.434 102.808 110.205L102.832 110.229C104.15 109.106 105.444 107.91 106.689 106.689C107.91 105.469 109.106 104.175 110.229 102.832L110.205 102.808C119.434 91.9434 125 77.8809 125 62.5ZM62.5 10.4736C76.8799 10.4736 89.8682 16.3086 99.292 25.708C108.716 35.1318 114.526 48.1445 114.526 62.5C114.526 74.9756 110.107 86.4258 102.783 95.4102L29.5898 22.1924C38.5742 14.8682 50.0244 10.4736 62.5 10.4736ZM62.5 114.526C48.1445 114.526 35.1318 108.691 25.708 99.292C16.2842 89.8682 10.4736 76.8799 10.4736 62.5C10.4736 50.0244 14.8926 38.5742 22.2168 29.5898L95.4102 102.783C86.4258 110.132 74.9756 114.526 62.5 114.526Z" fill="#FBBC05"/>
</svg>
